<?xml version="1.0" encoding="UTF-8"?><svg xmlns="http://www.w3.org/2000/svg" viewBox="0 0 468 189.89"><defs><style>.d{fill:#f15a24;}.e{fill:#0e2250;}</style></defs><g id="a"/><g id="b"><g id="c"><g><g><path class="e" d="M43.69,147.06c-2.06-.57-4.36-1.26-6.88-2.06,.23-.58,.14-1.09-.26-1.55-.4-.46-1.23-.75-2.49-.86-1.72-1.03-3.3-2.32-4.73-3.87-1.44-1.55-2.61-3.07-3.53-4.56-.92-1.49-1.61-2.75-2.06-3.78-.8-1.72-1.18-2.78-1.12-3.18,.06-.4,.71-.89,1.98-1.46,1.26-.92,2.21-1.2,2.84-.86,.63,.34,1.4,1.49,2.32,3.44,1.49,2.64,4.04,4.64,7.65,6.02,3.61,1.38,7.68,1.98,12.21,1.81,4.53-.17,8.86-1.17,12.99-3.01,4.24-1.72,6.91-3.53,8-5.42,1.09-1.89,.66-4.33-1.29-7.31-.34-.92-.75-1.66-1.2-2.24-.46-.57-1.18-1.32-2.15-2.24-.98-.92-2.55-2.41-4.73-4.47-1.72-.8-3.3-1.55-4.73-2.24-1.44-.69-2.95-1.43-4.56-2.24-1.84-.92-4.04-2.26-6.62-4.04-2.58-1.78-5.02-3.75-7.31-5.93-2.3-2.18-3.96-4.18-4.99-6.02-1.84-1.72-3.21-4.1-4.13-7.14-.92-3.04-1.26-6.28-1.03-9.72,.23-3.44,1.09-6.54,2.58-9.29,.69-1.6,1.86-3.58,3.53-5.93,1.66-2.35,3.53-4.73,5.59-7.14s4.07-4.58,6.02-6.54,3.55-3.32,4.82-4.13c.92-.92,2.41-2.35,4.47-4.3,.11-.57,.46-.86,1.03-.86,.57-.34,1.83-.92,3.78-1.72,1.95-.8,4.07-2.29,6.36-4.47,7.68-3.67,13.93-6.36,18.75-8.08,4.82-1.72,8.77-2.58,11.87-2.58,2.86,.12,5.47,.77,7.83,1.98,2.35,1.2,4.3,2.78,5.85,4.73,1.55,1.95,2.49,4.3,2.84,7.05,.8,2.75,.57,5.93-.69,9.55-1.26,3.61-3.13,7-5.59,10.15-2.47,3.16-5.13,5.53-8,7.14-3.21,1.38-5.36,1.98-6.45,1.81-1.09-.17-1.58-1.35-1.46-3.53,0-.92,.31-2,.95-3.27,.63-1.26,2.38-3.5,5.25-6.71,3.67-5.39,5.9-9.69,6.71-12.9,.8-3.21,.06-4.99-2.24-5.33-.69-.23-1.92-.23-3.7,0-1.78,.23-3.73,.55-5.85,.95-2.12,.4-3.93,.8-5.42,1.2-1.49,.4-2.24,.72-2.24,.95,0,.69-.23,.98-.69,.86-.23,0-1.2,.46-2.92,1.38-1.72,.92-3.78,2.12-6.19,3.61-2.41,1.49-4.82,2.98-7.22,4.47-2.41,1.49-4.44,2.78-6.11,3.87-1.66,1.09-2.55,1.75-2.67,1.98-.23,1.26-1.55,2.41-3.96,3.44-2.29,1.38-4.39,3.38-6.28,6.02-1.89,2.64-3.99,5.91-6.28,9.8-1.95,2.64-3.33,5.48-4.13,8.51-.8,3.04-.8,5.48,0,7.31,.57,1.84,2.35,4.19,5.33,7.05,2.98,2.87,6.71,5.62,11.18,8.26,3.9,2.18,7.4,4.33,10.49,6.45,3.1,2.12,5.65,4.16,7.65,6.11,2,1.95,3.35,3.67,4.04,5.16,1.38,1.95,2.38,3.93,3.01,5.93,.63,2.01,.97,3.93,1.03,5.76,.06,1.83-.15,3.5-.6,4.99-.8,1.84-2.21,3.73-4.21,5.68-2.01,1.95-3.7,2.86-5.07,2.75-1.26,.34-2.21,.74-2.84,1.2-.63,.46-1.35,.86-2.15,1.2-.8,.46-2.49,.92-5.07,1.38-2.58,.46-5.42,.77-8.51,.95-3.1,.17-5.96,.2-8.6,.09Z"/><path class="e" d="M94.08,176.99c-.46,0-1.03,.03-1.72,.09-.69,.06-1.32-.43-1.89-1.46-.46-.58-.72-1.44-.77-2.58-.06-1.15,.2-3.21,.77-6.19,.57-1.95,1.03-3.87,1.38-5.76,.34-1.89,.52-3.3,.52-4.21,0-.46,.14-1.35,.43-2.67,.28-1.32,.43-2.27,.43-2.84,.57-.92,1.03-2.18,1.38-3.78,.34-1.61,.52-3.04,.52-4.3,0-1.38,.69-2.64,2.06-3.78,0-.92,.2-2.06,.6-3.44,.4-1.38,.6-2.29,.6-2.75,.34-1.6,1.12-4.44,2.32-8.51,1.2-4.07,2.69-8.69,4.47-13.85,1.78-5.16,3.53-10.2,5.25-15.14,1.72-4.93,3.27-9.12,4.64-12.56,1.38-3.21,2.32-5.99,2.84-8.34,.52-2.35,.77-4.1,.77-5.25,0-.46,.11-.83,.34-1.12,.23-.29,.74-.89,1.55-1.81,1.15-1.14,2.15-1.49,3.01-1.03,.86,.46,1.92,1.15,3.18,2.06,.92,1.49,1.58,2.75,1.98,3.78,.4,1.03,.37,2.81-.09,5.33,0,1.72-.29,3.21-.86,4.47-.58,1.26-1.09,2.21-1.55,2.84-.46,.63-.57,.89-.34,.77,4.7-2.18,8.86-3.35,12.47-3.53,3.61-.17,6.65,.46,9.12,1.89,2.46,1.44,4.33,3.41,5.59,5.93,1.26,2.52,1.89,5.45,1.89,8.77,0,1.38-.29,3.01-.86,4.9-.58,1.89-1.29,3.61-2.15,5.16-.86,1.55-1.63,2.67-2.32,3.35-.46,0-.92,.37-1.38,1.12-.46,.75-.92,1.58-1.38,2.49-.92,1.15-2.38,2.44-4.39,3.87-2.01,1.44-3.99,2.58-5.93,3.44-1.95,.86-3.38,1.12-4.3,.77-.57,.12-.86,.46-.86,1.03,0,.23-.92,.72-2.75,1.46-1.84,.75-3.96,1.44-6.36,2.06-2.41,.63-4.53,.95-6.36,.95-2.41,0-4.13-.46-5.16-1.38-.23,.23-.49,.57-.77,1.03-.29,.46-.43,.86-.43,1.21,0,.69-.26,1.98-.77,3.87-.52,1.89-1.12,3.7-1.81,5.42-.69,1.72-1.32,2.58-1.89,2.58-.46,.69-.46,1.32,0,1.89-.12,2.64-.46,4.41-1.03,5.33,0,.92-.17,2.29-.52,4.13-.34,1.83-.75,3.21-1.2,4.13,0,1.38-.2,2.72-.6,4.04-.4,1.32-.83,1.98-1.29,1.98-.46,.11-.75,.83-.86,2.15-.12,1.32-.17,2.26-.17,2.84-.12,2.87-.69,5.1-1.72,6.71-1.03,1.6-2.24,2.41-3.61,2.41Zm20.81-57.45c.92,0,2.81-.4,5.68-1.2,2.86-.8,5.82-1.81,8.86-3.01,3.04-1.2,5.3-2.44,6.79-3.7,2.98-2.64,5.3-5.65,6.97-9.03,1.66-3.38,1.52-6.62-.43-9.72-.92-1.6-2.58-2.26-4.99-1.98-2.41,.29-5.05,1.23-7.91,2.84-2.87,1.61-5.56,3.61-8.08,6.02-1.38,1.49-2.64,3.33-3.78,5.5-1.15,2.18-2.09,4.36-2.84,6.54-.75,2.18-1.18,4.02-1.29,5.5-.12,1.49,.23,2.24,1.03,2.24Z"/><path class="e" d="M167.7,132.96c-.92-.92-1.58-2.06-1.98-3.44-.4-1.38-.55-2.75-.43-4.13,.11-1.38,.4-2.52,.86-3.44,0-.92,.14-1.63,.43-2.15,.28-.52,.37-1,.26-1.46-.12-.46,0-1.26,.34-2.41,.34-1.14,.69-2.24,1.03-3.27,.8-1.83,1.66-4.04,2.58-6.62,.92-2.58,1.78-5.13,2.58-7.65,.8-2.52,1.49-4.7,2.06-6.54,.57-1.83,.92-2.98,1.03-3.44,0-1.38,.92-2.12,2.75-2.24,1.38-.46,2.41-.49,3.1-.09,.69,.4,1.6,1.52,2.75,3.35,.92,.92,1.26,2.29,1.03,4.13-.23,1.84-.98,4.13-2.24,6.88-.46,.92-1,2.24-1.63,3.96-.63,1.72-1.06,3.27-1.29,4.64-.46,.92-1,2.21-1.63,3.87-.63,1.66-1.18,3.24-1.63,4.73-.23,.58-.46,1.41-.69,2.49-.23,1.09-.52,2.24-.86,3.44-.34,1.2-.8,2.27-1.38,3.18-1.03,4.7-1.98,7.46-2.84,8.26-.86,.8-2.27,.12-4.21-2.06Zm16.68-69.83c-.58-.57-1.09-1.4-1.55-2.49-.46-1.09-.75-2.12-.86-3.1-.12-.97,0-1.46,.34-1.46,.92-.11,2-1.09,3.27-2.92,1.26-1.83,1.78-3.44,1.55-4.82,0-.46,.17-.89,.52-1.29,.34-.4,.74-.66,1.2-.77,1.38-.92,2.72-1.06,4.04-.43,1.32,.63,2.55,1.87,3.7,3.7,1.03,2.18,1.32,3.99,.86,5.42-.46,1.44-1.72,3.41-3.78,5.93-1.72,2.29-3.3,3.56-4.73,3.78-1.44,.23-2.95-.28-4.56-1.55Z"/><path class="e" d="M216.03,134.5c-2.52,0-4.42-.11-5.68-.34-1.26-.23-2.24-.57-2.92-1.03-.69-.46-1.49-1.09-2.41-1.89-.46-.92-1.03-1.89-1.72-2.92-.69-1.03-1.26-1.78-1.72-2.24-.46-1.72-.66-3.96-.6-6.71,.06-2.75,.4-5.73,1.03-8.94,.63-3.21,1.52-6.19,2.67-8.94,.46-.92,1.03-2.29,1.72-4.13,0-.57,.71-1.95,2.15-4.13,1.43-2.18,3.04-4.47,4.82-6.88,1.78-2.41,3.24-4.13,4.39-5.16,.8-.92,2.03-1.89,3.7-2.92,1.66-1.03,3.12-1.78,4.39-2.24,1.26-.46,2.55-.86,3.87-1.2,1.32-.34,2.84-.52,4.56-.52,1.6,0,3.1,.34,4.47,1.03s2.69,1.89,3.96,3.61c2.06,2.06,3.24,4.1,3.53,6.11,.29,2.01,.2,4.04-.26,6.11-.58,2.29-1.32,4.04-2.24,5.25-.92,1.2-1.95,1.75-3.1,1.63-1.15-.11-2.47-.97-3.96-2.58-.46-.92-.69-1.69-.69-2.32s.23-1.58,.69-2.84c.46-1.6,.46-3.27,0-4.99-.46-1.72-1.2-2.58-2.24-2.58-1.49,0-3.13,.66-4.9,1.98-1.78,1.32-3.59,2.95-5.42,4.9-.8,.92-1.92,2.32-3.35,4.21-1.44,1.89-2.84,3.96-4.21,6.19-1.38,2.24-2.52,4.39-3.44,6.45-1.26,3.78-2.64,7.97-4.13,12.56,0,.46,.14,.89,.43,1.29,.28,.4,.43,.83,.43,1.29,0,1.38,.8,2.47,2.41,3.27,1.26,.8,2.75,1.23,4.47,1.29,1.72,.06,3.84-.49,6.36-1.63,1.83-.92,3.58-2.12,5.25-3.61,1.66-1.49,3.41-2.81,5.25-3.96,1.26-.8,2.26-1.49,3.01-2.06,.74-.57,1.12-.63,1.12-.17s.17,.69,.52,.69,.74-.23,1.2-.69c.69-.92,1.43-1.52,2.24-1.81,.8-.28,1.52-.4,2.15-.34,.63,.06,.95,.26,.95,.6-.23,1.03,0,1.89,.69,2.58,0,.46-.15,1.06-.43,1.81-.29,.75-.66,1.35-1.12,1.81-.57,.8-1.41,1.72-2.49,2.75-1.09,1.03-2.55,2.29-4.39,3.78-.46-.11-.89,0-1.29,.34-.4,.34-.83,.75-1.29,1.2-.92,.8-1.78,1.41-2.58,1.81-.8,.4-1.44,.6-1.89,.6-.8,.46-1.41,.75-1.81,.86-.4,.12-.6,.4-.6,.86-1.15,1.15-2.55,1.92-4.21,2.32-1.66,.4-4.1,.6-7.31,.6Z"/><path class="e" d="M266.94,133.13c-1.72-.23-3.18-1.46-4.39-3.7-1.2-2.24-1.92-4.27-2.15-6.11,.11-.92,.26-2.24,.43-3.96,.17-1.72,.37-3.5,.6-5.33,.46-2.18,1.09-4.84,1.89-8,.8-3.15,1.63-6.33,2.49-9.55,.86-3.21,1.63-5.96,2.32-8.26,.69-2.29,1.14-3.67,1.38-4.13,.57-.92,1.49-1.15,2.75-.69,1.26,.46,2.29,1.15,3.1,2.06,.69,.92,1.12,2.01,1.29,3.27,.17,1.26,0,3.1-.52,5.5-.52,2.41-1.46,5.96-2.84,10.66-1.26,4.59-2.21,8.29-2.84,11.09-.63,2.81-.89,5.76-.77,8.86-.46,3.9-.8,6.28-1.03,7.14-.23,.86-.8,1.23-1.72,1.12Zm19.78-68.63c-.46,.34-.89,.49-1.29,.43-.4-.06-1.06-.37-1.98-.95-.8-.11-1.81-.66-3.01-1.63-1.2-.97-2.24-2-3.1-3.1-.86-1.09-1.29-1.75-1.29-1.98-.12-1.15-.03-2.61,.26-4.39,.29-1.78,.89-3.38,1.81-4.82,.92-1.43,2.24-2.21,3.96-2.32,.46,0,.86,.06,1.21,.17,.34,.12,1.38,.52,3.1,1.2,.92,1.72,1.83,3.64,2.75,5.76,.92,2.12,1.32,4.19,1.2,6.19-.12,2.01-1.32,3.81-3.61,5.42Z"/><path class="e" d="M302.54,134.33c-4.47-1.83-7.37-4.39-8.69-7.65-1.32-3.27-1.58-8.34-.77-15.22,.23-3.55,.34-5.9,.34-7.05s-.63-2.29-1.89-3.44c-.34-.46-.95-1.09-1.81-1.89-.86-.8-1.23-1.49-1.12-2.06-.12-.8-.06-1.69,.17-2.67,.23-.97,.57-1.46,1.03-1.46s.95-.11,1.46-.34c.52-.23,1-.23,1.46,0,.46,0,.97,.06,1.55,.17,.57,.12,.86,.4,.86,.86,.46,.8,1.2,.89,2.24,.26,1.03-.63,2.12-2.09,3.27-4.39,1.14-1.83,2.67-3.67,4.56-5.5,1.89-1.83,3.78-3.53,5.68-5.07,1.89-1.55,3.47-2.67,4.73-3.35,.57-.23,1.43-.52,2.58-.86s2.38-.63,3.7-.86c1.32-.23,2.43-.29,3.35-.17,2.06,.12,3.81,.69,5.25,1.72,1.43,1.03,2.78,2.24,4.04,3.61,1.49,1.03,2.43,2.41,2.84,4.13,.4,1.72,.49,3.56,.26,5.5-.23,1.95-.75,3.73-1.55,5.33-.34,1.15-1.32,2.52-2.92,4.13-1.61,1.61-3.44,3.16-5.5,4.64-2.06,1.49-3.96,2.58-5.68,3.27-1.49,.34-3.41,.63-5.76,.86-2.35,.23-4.53,.32-6.54,.26-2.01-.06-3.35-.26-4.04-.6-.8-.46-1.44,.17-1.89,1.89-.46,1.72-.8,4.19-1.03,7.4-.23,2.52-.23,4.36,0,5.5,.23,1.15,.46,1.95,.69,2.41,.8,.8,1.92,1.81,3.35,3.01,1.43,1.2,3.47,1.41,6.11,.6,2.18-.57,4.33-2.06,6.45-4.47,2.12-2.41,4.1-4.36,5.93-5.85,.46-.8,1.23-1.29,2.32-1.46,1.09-.17,2.26-.09,3.53,.26,1.26,.8,1.81,1.75,1.63,2.84-.17,1.09-.77,2.73-1.81,4.9-.34,.8-1.12,1.81-2.32,3.01-1.2,1.2-2.52,2.41-3.96,3.61-1.44,1.2-2.72,2.15-3.87,2.84-3.44,1.84-6.65,2.78-9.63,2.84-2.98,.06-5.85-.43-8.6-1.46Zm10.15-34.92c2.52-.57,4.53-.97,6.02-1.2,1.49-.23,2.92-.89,4.3-1.98,1.38-1.09,3.1-3.18,5.16-6.28,.46-1.26,.6-2.52,.43-3.78-.17-1.26-.49-2.12-.95-2.58-1.03-1.14-2.27-1.52-3.7-1.12-1.44,.4-2.78,1.06-4.04,1.98-.8,.34-1.98,1.18-3.53,2.49-1.55,1.32-3.07,2.81-4.56,4.47-1.49,1.66-2.7,3.18-3.61,4.56-.92,1.38-1.15,2.18-.69,2.41-.23,.46,.43,.75,1.98,.86,1.55,.12,2.61,.17,3.18,.17Z"/><path class="e" d="M362.23,136.05c-5.74,0-9.92-2.06-12.56-6.19-.8-1.15-1.18-2.32-1.12-3.53,.06-1.2,.4-2.03,1.03-2.49,.63-.46,1.4-.06,2.32,1.2,1.6,.92,3.9,1.38,6.88,1.38,1.49,0,3.04-.14,4.64-.43,1.6-.28,3.21-.71,4.82-1.29,1.72-.8,2.87-1.52,3.44-2.15,.57-.63,.46-1.17-.34-1.63h.17c-2.98-.8-5.99-2.09-9.03-3.87-3.04-1.78-5.65-3.72-7.83-5.85-2.18-2.12-3.44-4.04-3.78-5.76-.92-3.55-.69-7.19,.69-10.92,1.38-3.73,3.32-7.02,5.85-9.89,.92-.57,2.06-1.29,3.44-2.15,1.38-.86,2.46-1.35,3.27-1.46v.17c2.18-2.29,4.84-4.13,8-5.5,3.15-1.38,6.51-2.64,10.06-3.78l2.58-.34c1.38-.23,2.52-.34,3.44-.34-.12,0,.11,.09,.69,.26,.57,.17,1.09,.32,1.55,.43,.69,.34,1.26,.52,1.72,.52,1.49,.23,2.86,.92,4.13,2.06,1.26,1.15,2.26,2.49,3.01,4.04,.74,1.55,1,3.01,.77,4.39-.23,2.18-.89,4.13-1.98,5.85-1.09,1.72-2.38,2.7-3.87,2.92,.23-.11,.09-.31-.43-.6-.52-.28-1.06-.6-1.63-.95l-.52,.34c-.12-.57-.29-1.09-.52-1.55-.34-.69-.52-1.46-.52-2.32s.06-1.81,.17-2.84c.23-1.26,.26-2,.09-2.24-.17-.23-.95-.4-2.32-.52-1.61-.34-3.93-.06-6.97,.86-3.04,.92-5.59,2.18-7.65,3.78-2.52,1.61-4.64,3.13-6.36,4.56-1.72,1.44-3.1,2.81-4.13,4.13-1.03,1.32-1.95,2.84-2.75,4.56-.58,.8-1.06,1.58-1.46,2.32-.4,.75-.6,1.41-.6,1.98,0,1.26,.95,2.55,2.84,3.87,1.89,1.32,4.73,2.84,8.51,4.56,2.98,1.26,5.5,2.64,7.57,4.13,2.06,1.49,3.5,3.21,4.3,5.16,.23,.46,.31,1,.26,1.63-.06,.63-.2,1.06-.43,1.29,.23,.23,.34,.4,.34,.52v-.17c.92,1.38,.95,2.81,.09,4.3-.86,1.49-2.29,2.78-4.3,3.87-2.01,1.09-4.45,1.92-7.31,2.49h.17c-1.49,.46-2.95,.77-4.39,.95-1.44,.17-2.78,.26-4.04,.26Z"/></g><circle class="d" cx="416.5" cy="66.86" r="11.5"/></g></g></g></svg>